<svg width="142" height="48" viewBox="0 0 142 48" fill="none" xmlns="http://www.w3.org/2000/svg">
<path d="M80.0691 16.1516C79.5584 15.6406 78.9519 15.2353 78.2845 14.9587C77.617 14.6821 76.9016 14.5398 76.1791 14.5398C75.4566 14.5398 74.7412 14.6821 74.0738 14.9587C73.4063 15.2353 72.7999 15.6406 72.2891 16.1516L71.2291 17.2116L70.1691 16.1516C69.1374 15.1199 67.7382 14.5403 66.2791 14.5403C64.8201 14.5403 63.4208 15.1199 62.3891 16.1516C61.3574 17.1833 60.7778 18.5826 60.7778 20.0416C60.7778 21.5007 61.3574 22.8999 62.3891 23.9316L63.4491 24.9916L71.2291 32.7716L79.0091 24.9916L80.0691 23.9316C80.5801 23.4209 80.9855 22.8144 81.262 22.147C81.5386 21.4795 81.6809 20.7641 81.6809 20.0416C81.6809 19.3191 81.5386 18.6037 81.262 17.9363C80.9855 17.2688 80.5801 16.6624 80.0691 16.1516Z" fill="#F72381" stroke="#F72381" stroke-width="2" stroke-linecap="round" stroke-linejoin="round"/>
<circle cx="76.0441" cy="2.11325" r="1.5" transform="rotate(50 76.0441 2.11325)" fill="#E28FBF"/>
<circle cx="71.0648" cy="6.2914" r="1" transform="rotate(50 71.0648 6.2914)" fill="#884C83"/>
<circle cx="56.729" cy="6.04163" r="1.5" fill="#E28FBF"/>
<circle cx="56.729" cy="12.5416" r="1" fill="#884C83"/>
<circle cx="91.4221" cy="11.707" r="1.5" transform="rotate(112 91.4221 11.707)" fill="#E9B857"/>
<circle cx="85.3954" cy="9.27206" r="1" transform="rotate(112 85.3954 9.27206)" fill="#D5C498"/>
<circle cx="92.5679" cy="28.5786" r="1.5" transform="rotate(162 92.5679 28.5786)" fill="#E9B857"/>
<circle cx="90.5593" cy="22.3967" r="1" transform="rotate(162 90.5593 22.3967)" fill="#D5C498"/>
<circle cx="79.0389" cy="45.4232" r="1.5" transform="rotate(-138 79.0389 45.4232)" fill="#4F9ACD"/>
<circle cx="83.3882" cy="40.5927" r="1" transform="rotate(-138 83.3882 40.5927)" fill="#4B79AE"/>
<circle cx="60.4441" cy="42.7233" r="1.5" transform="rotate(-104 60.4441 42.7233)" fill="#77AC5E"/>
<circle cx="66.751" cy="41.1508" r="1" transform="rotate(-104 66.751 41.1508)" fill="#7B8B79"/>
<circle cx="49.35" cy="22.5786" r="1.5" transform="rotate(-44 49.35 22.5786)" fill="#77AC5E"/>
<circle cx="53.8653" cy="27.2544" r="1" transform="rotate(-44 53.8653 27.2544)" fill="#7B8B79"/>
<path d="M127.298 16.1516C126.787 15.6406 126.181 15.2353 125.513 14.9587C124.846 14.6821 124.131 14.5398 123.408 14.5398C122.686 14.5398 121.97 14.6821 121.303 14.9587C120.635 15.2353 120.029 15.6406 119.518 16.1516L118.458 17.2116L117.398 16.1516C116.366 15.1199 114.967 14.5403 113.508 14.5403C112.049 14.5403 110.65 15.1199 109.618 16.1516C108.586 17.1833 108.007 18.5826 108.007 20.0416C108.007 21.5007 108.586 22.8999 109.618 23.9316L110.678 24.9916L118.458 32.7716L126.238 24.9916L127.298 23.9316C127.809 23.4209 128.214 22.8144 128.491 22.147C128.768 21.4795 128.91 20.7641 128.91 20.0416C128.91 19.3191 128.768 18.6037 128.491 17.9363C128.214 17.2688 127.809 16.6624 127.298 16.1516Z" fill="#F72381" stroke="#F72381" stroke-width="2" stroke-linecap="round" stroke-linejoin="round"/>
<path d="M32.8401 16.1516C32.3294 15.6406 31.7229 15.2353 31.0555 14.9587C30.388 14.6821 29.6726 14.5398 28.9501 14.5398C28.2276 14.5398 27.5122 14.6821 26.8448 14.9587C26.1773 15.2353 25.5709 15.6406 25.0601 16.1516L24.0001 17.2116L22.9401 16.1516C21.9084 15.1199 20.5092 14.5403 19.0501 14.5403C17.5911 14.5403 16.1918 15.1199 15.1601 16.1516C14.1284 17.1833 13.5488 18.5826 13.5488 20.0416C13.5488 21.5007 14.1284 22.8999 15.1601 23.9316L16.2201 24.9916L24.0001 32.7716L31.7801 24.9916L32.8401 23.9316C33.3511 23.4209 33.7565 22.8144 34.033 22.147C34.3096 21.4795 34.4519 20.7641 34.4519 20.0416C34.4519 19.3191 34.3096 18.6037 34.033 17.9363C33.7565 17.2688 33.3511 16.6624 32.8401 16.1516V16.1516Z" stroke="#6E767D" stroke-width="2" stroke-linecap="round" stroke-linejoin="round"/>
</svg>
