<svg width="105" height="39" viewBox="0 0 105 39" fill="none" xmlns="http://www.w3.org/2000/svg">
<path d="M58.9467 13.8907C58.5707 13.5145 58.1242 13.2161 57.6328 13.0125C57.1414 12.8089 56.6148 12.7041 56.0829 12.7041C55.551 12.7041 55.0243 12.8089 54.5329 13.0125C54.0415 13.2161 53.5951 13.5145 53.2191 13.8907L52.4387 14.6711L51.6583 13.8907C50.8988 13.1312 49.8686 12.7045 48.7945 12.7045C47.7204 12.7045 46.6902 13.1312 45.9307 13.8907C45.1712 14.6503 44.7445 15.6804 44.7445 16.7545C44.7445 17.8287 45.1712 18.8588 45.9307 19.6183L46.7111 20.3987L52.4387 26.1263L58.1663 20.3987L58.9467 19.6183C59.3229 19.2423 59.6213 18.7959 59.8249 18.3045C60.0285 17.8131 60.1333 17.2864 60.1333 16.7545C60.1333 16.2226 60.0285 15.696 59.8249 15.2046C59.6213 14.7132 59.3229 14.2667 58.9467 13.8907V13.8907Z" fill="#F72381" stroke="#F72381" stroke-width="2" stroke-linecap="round" stroke-linejoin="round"/>
<circle cx="56.5897" cy="3.04709" r="1.5" transform="rotate(50 56.5897 3.04709)" fill="#E28FBF"/>
<circle cx="51.6104" cy="7.22524" r="1" transform="rotate(50 51.6104 7.22524)" fill="#884C83"/>
<circle cx="41.7637" cy="5.65637" r="1.5" fill="#E28FBF"/>
<circle cx="41.7637" cy="12.1564" r="1" fill="#884C83"/>
<circle cx="68.0385" cy="10.9152" r="1.5" transform="rotate(112 68.0385 10.9152)" fill="#E9B857"/>
<circle cx="62.0118" cy="8.48019" r="1" transform="rotate(112 62.0118 8.48019)" fill="#D5C498"/>
<circle cx="68.3928" cy="23.7922" r="1.5" transform="rotate(162 68.3928 23.7922)" fill="#E9B857"/>
<circle cx="66.3842" cy="17.6103" r="1" transform="rotate(162 66.3842 17.6103)" fill="#D5C498"/>
<circle cx="57.6587" cy="36.0286" r="1.5" transform="rotate(-138 57.6587 36.0286)" fill="#4F9ACD"/>
<circle cx="62.008" cy="31.1981" r="1" transform="rotate(-138 62.008 31.1981)" fill="#4B79AE"/>
<circle cx="43.7309" cy="33.6442" r="1.5" transform="rotate(-104 43.7309 33.6442)" fill="#77AC5E"/>
<circle cx="50.0378" cy="32.0717" r="1" transform="rotate(-104 50.0378 32.0717)" fill="#7B8B79"/>
<circle cx="35.7816" cy="18.053" r="1.5" transform="rotate(-44 35.7816 18.053)" fill="#77AC5E"/>
<circle cx="40.2969" cy="22.7288" r="1" transform="rotate(-44 40.2969 22.7288)" fill="#7B8B79"/>
<path d="M93.7165 13.8907C93.3405 13.5145 92.8941 13.2161 92.4027 13.0125C91.9113 12.8089 91.3846 12.7041 90.8527 12.7041C90.3208 12.7041 89.7942 12.8089 89.3028 13.0125C88.8114 13.2161 88.3649 13.5145 87.9889 13.8907L87.2086 14.6711L86.4282 13.8907C85.6687 13.1312 84.6385 12.7045 83.5644 12.7045C82.4902 12.7045 81.4601 13.1312 80.7006 13.8907C79.941 14.6503 79.5143 15.6804 79.5143 16.7545C79.5143 17.8287 79.941 18.8588 80.7006 19.6183L81.4809 20.3987L87.2086 26.1263L92.9362 20.3987L93.7165 19.6183C94.0927 19.2423 94.3912 18.7959 94.5948 18.3045C94.7984 17.8131 94.9032 17.2864 94.9032 16.7545C94.9032 16.2226 94.7984 15.696 94.5948 15.2046C94.3912 14.7132 94.0927 14.2667 93.7165 13.8907V13.8907Z" fill="#F72381" stroke="#F72381" stroke-width="2" stroke-linecap="round" stroke-linejoin="round"/>
<path d="M24.1768 13.8907C23.8008 13.5145 23.3543 13.2161 22.863 13.0125C22.3716 12.8089 21.8449 12.7041 21.313 12.7041C20.7811 12.7041 20.2544 12.8089 19.763 13.0125C19.2717 13.2161 18.8252 13.5145 18.4492 13.8907L17.6688 14.6711L16.8885 13.8907C16.1289 13.1312 15.0988 12.7045 14.0246 12.7045C12.9505 12.7045 11.9204 13.1312 11.1608 13.8907C10.4013 14.6503 9.97461 15.6804 9.97461 16.7545C9.97461 17.8287 10.4013 18.8588 11.1608 19.6183L11.9412 20.3987L17.6688 26.1263L23.3964 20.3987L24.1768 19.6183C24.553 19.2423 24.8514 18.7959 25.055 18.3045C25.2586 17.8131 25.3634 17.2864 25.3634 16.7545C25.3634 16.2226 25.2586 15.696 25.055 15.2046C24.8514 14.7132 24.553 14.2667 24.1768 13.8907V13.8907Z" stroke="#6E767D" stroke-width="2" stroke-linecap="round" stroke-linejoin="round"/>
</svg>
