<svg width="36" height="35" viewBox="0 0 36 35" fill="none" xmlns="http://www.w3.org/2000/svg">
<path d="M24.7165 11.8907C24.3405 11.5145 23.8941 11.2161 23.4027 11.0125C22.9113 10.8089 22.3846 10.7041 21.8527 10.7041C21.3208 10.7041 20.7942 10.8089 20.3028 11.0125C19.8114 11.2161 19.3649 11.5145 18.9889 11.8907L18.2086 12.6711L17.4282 11.8907C16.6687 11.1312 15.6385 10.7045 14.5644 10.7045C13.4902 10.7045 12.4601 11.1312 11.7006 11.8907C10.941 12.6503 10.5143 13.6804 10.5143 14.7545C10.5143 15.8287 10.941 16.8588 11.7006 17.6183L12.4809 18.3987L18.2086 24.1263L23.9362 18.3987L24.7165 17.6183C25.0927 17.2423 25.3912 16.7959 25.5948 16.3045C25.7984 15.8131 25.9032 15.2864 25.9032 14.7545C25.9032 14.2226 25.7984 13.696 25.5948 13.2046C25.3912 12.7132 25.0927 12.2667 24.7165 11.8907V11.8907Z" fill="#F72381" stroke="#F72381" stroke-width="2" stroke-linecap="round" stroke-linejoin="round"/>
</svg>
